<svg xmlns="http://www.w3.org/2000/svg" xmlns:xlink="http://www.w3.org/1999/xlink" width="401.659" height="354.746" viewBox="0 0 401.659 354.746"><defs><style>.a{fill:#003cff;}.b{fill:url(#c);}.c,.d{stroke:none;}.d{fill:rgba(112,112,112,0);}.e{filter:url(#a);}</style><filter id="a" x="0" y="20.004" width="401.659" height="334.743" filterUnits="userSpaceOnUse"><feOffset dy="10" input="SourceAlpha"/><feGaussianBlur stdDeviation="3" result="b"/><feFlood flood-color="#011c75"/><feComposite operator="in" in2="b"/><feComposite in="SourceGraphic"/></filter><pattern id="c" preserveAspectRatio="none" width="100%" height="100%" viewBox="0 0 500 500"><image width="500" height="500" xlink:href="Group%209-image.jpg"/></pattern></defs><g transform="translate(-562.469 -177)"><g class="e" transform="matrix(1, 0, 0, 1, 562.47, 177)"><g class="a" transform="translate(9 85.11) rotate(-11)"><path class="c" d="M19.689,0H321.44a19.77,19.77,0,0,1,19.77,19.77c0,10.919-146.618,235.558-157.537,235.558L.606,19.126h0A18.652,18.652,0,0,1,19.689,0Z"/><path class="d" d="M 19.68865966796875 1.000015258789063 C 14.67843627929688 1.000015258789063 10.08734130859375 2.837646484375 6.761138916015625 6.17437744140625 C 3.511749267578125 9.434036254882813 1.68939208984375 13.90196228027344 1.60894775390625 18.78717041015625 L 184.0405883789063 254.1707458496094 C 184.4636688232422 253.9345245361328 185.28564453125 253.3460845947266 186.7509155273438 251.8801879882813 C 188.3943786621094 250.2360534667969 190.5325622558594 247.8035125732422 193.1060638427734 244.6500549316406 C 197.9942779541016 238.6603240966797 204.5108795166016 230.006103515625 212.4747924804688 218.9278259277344 C 226.8222045898438 198.9697418212891 245.8404235839844 171.1525115966797 266.0261840820313 140.6004180908203 C 284.9842529296875 111.9064636230469 303.708251953125 82.69815063476563 317.3971557617188 60.46482849121094 C 324.5447387695313 48.8558349609375 330.147705078125 39.43901062011719 334.0503234863281 32.47605895996094 C 336.0750732421875 28.86355590820313 337.6285705566406 25.93218994140625 338.6676635742188 23.76336669921875 C 340.098388671875 20.77719116210938 340.2095642089844 19.95173645019531 340.2095642089844 19.76986694335938 C 340.2095642089844 17.23550415039063 339.7134094238281 14.77751159667969 338.7349243164063 12.46409606933594 C 337.7896118164063 10.22909545898438 336.4360961914063 8.221694946289063 334.7119750976563 6.49755859375 C 332.9878234863281 4.773468017578125 330.9804077148438 3.419967651367188 328.7454223632813 2.474639892578125 C 326.4320068359375 1.496139526367188 323.9739990234375 1.000015258789063 321.4396362304688 1.000015258789063 L 19.68865966796875 1.000015258789063 M 19.68865966796875 1.52587890625e-05 L 321.4396362304688 1.52587890625e-05 C 332.3582458496094 1.52587890625e-05 341.2095642089844 8.851287841796875 341.2095642089844 19.76986694335938 C 341.2095642089844 30.68850708007813 194.5911102294922 255.3281860351563 183.6724700927734 255.3281860351563 L 0.60614013671875 19.125732421875 C 0.15155029296875 19.125732421875 0 19.125732421875 0 19.125732421875 L 0.60614013671875 19.125732421875 C 0.60614013671875 8.207107543945313 8.770050048828125 1.52587890625e-05 19.68865966796875 1.52587890625e-05 Z"/></g></g><rect class="b" width="267.067" height="267.067" rx="96" transform="translate(611.563 177)"/></g></svg>