<svg id="Group_41" data-name="Group 41" width="1280" xmlns="http://www.w3.org/2000/svg" viewBox="0 0 1290 800">
  <g id="Rectangle_5" data-name="Rectangle 5" fill="#002ab4" stroke="rgba(112,112,112,0)" stroke-width="1">
    <rect width="1280" height="800" stroke="none"/>
    <rect x="0.5" y="0.5" width="1279" height="799" fill="none"/>
  </g>
  <g id="Ellipse_6" data-name="Ellipse 6" transform="translate(768.211 421)" fill="#0c2cff" stroke="rgba(112,112,112,0)" stroke-width="1">
    <circle cx="29" cy="29" r="29" stroke="none"/>
    <circle cx="29" cy="29" r="28.5" fill="none"/>
  </g>
  <g id="Ellipse_1" data-name="Ellipse 1" transform="translate(1053 65)" fill="#0c2cff" stroke="rgba(112,112,112,0)" stroke-width="1">
    <circle cx="29" cy="29" r="29" stroke="none"/>
    <circle cx="29" cy="29" r="28.5" fill="none"/>
  </g>
  <g id="Ellipse_2" data-name="Ellipse 2" transform="translate(1161 467)" fill="#0c2cff" stroke="rgba(112,112,112,0)" stroke-width="1">
    <circle cx="29" cy="29" r="29" stroke="none"/>
    <circle cx="29" cy="29" r="28.5" fill="none"/>
  </g>
  <g id="Ellipse_5" data-name="Ellipse 5" transform="translate(459 584)" fill="#0c2cff" stroke="rgba(112,112,112,0)" stroke-width="1">
    <circle cx="29" cy="29" r="29" stroke="none"/>
    <circle cx="29" cy="29" r="28.5" fill="none"/>
  </g>
  <g id="Ellipse_7" data-name="Ellipse 7" transform="translate(95 665)" fill="#0c2cff" stroke="rgba(112,112,112,0)" stroke-width="1">
    <circle cx="29" cy="29" r="29" stroke="none"/>
    <circle cx="29" cy="29" r="28.5" fill="none"/>
  </g>
  <g id="Ellipse_4" data-name="Ellipse 4" transform="translate(593 71)" fill="#0c2cff" stroke="rgba(112,112,112,0)" stroke-width="1">
    <circle cx="29" cy="29" r="29" stroke="none"/>
    <circle cx="29" cy="29" r="28.5" fill="none"/>
  </g>
  <g id="Ellipse_3" data-name="Ellipse 3" transform="translate(1232 694)" fill="#0c2cff" stroke="rgba(112,112,112,0)" stroke-width="1">
    <circle cx="29" cy="29" r="29" stroke="none"/>
    <circle cx="29" cy="29" r="28.5" fill="none"/>
  </g>
</svg>
